<?xml version="1.0" encoding="iso-8859-1"?>
<!-- Uploaded to: SVG Repo, www.svgrepo.com, Generator: SVG Repo Mixer Tools -->
<svg version="1.1" id="Layer_1" xmlns="http://www.w3.org/2000/svg" xmlns:xlink="http://www.w3.org/1999/xlink" 
	 viewBox="0 0 470.967 470.967" xml:space="preserve">
<g id="XMLID_928_">
	<rect id="XMLID_927_" x="86.834" y="390.959" style="fill:#96C8EF;" width="111.443" height="23.675"/>
	<g id="XMLID_236_">
		<path id="XMLID_238_" style="fill:#5AAAE7;" d="M262.49,470.967H81.415c-16.568,0-30-13.432-30-30s13.432-30,30-30h168.258
			l78.461-82.017c43.282-45.244,41.686-117.265-3.558-160.548l-51.293-49.069c-11.972-11.453-12.393-30.443-0.939-42.416
			c11.454-11.972,30.442-12.393,42.416-0.939l51.293,49.069c69.15,66.152,71.589,176.23,5.436,245.38l-87.321,91.278
			C278.508,467.621,270.677,470.967,262.49,470.967z"/>
	</g>
	<g id="XMLID_239_">
		<path id="XMLID_1872_" style="fill:#5AAAE7;" d="M237.581,249.696c-1.002-3.85-3.491-7.145-6.921-9.16l-50.184-29.473
			c-7.141-4.194-16.335-1.805-20.531,5.338l-31.908,54.33c-4.194,7.144-1.805,16.335,5.338,20.531l50.184,29.473
			c3.093,1.816,6.569,2.398,9.858,1.895c4.307-0.66,8.294-3.182,10.673-7.233l31.908-54.33
			C238.013,257.637,238.582,253.546,237.581,249.696z"/>
		<path id="XMLID_1871_" style="fill:#3D9AE2;" d="M237.581,249.696c-1.002-3.85-3.491-7.145-6.922-9.16l-25.115-14.75
			l-47.055,80.226l25.069,14.723c3.093,1.816,6.569,2.398,9.858,1.895c4.307-0.66,8.294-3.182,10.673-7.233l31.908-54.33
			C238.013,257.637,238.582,253.546,237.581,249.696z"/>
		<path id="XMLID_1870_" style="fill:#96C8EF;" d="M370.943,62.13c-3.445-13.249-11.843-24.364-23.648-31.297L306.811,7.056
			c-10.131-5.949-22.096-8.247-33.692-6.471c-15.323,2.347-28.611,11.353-36.456,24.71L133.536,200.892
			c-2.016,3.431-2.585,7.521-1.583,11.371c1.001,3.85,3.49,7.145,6.921,9.16l103.002,60.493c3.093,1.816,6.569,2.398,9.858,1.895
			c4.307-0.66,8.294-3.182,10.673-7.233l103.127-175.596C372.467,89.176,374.388,75.379,370.943,62.13z"/>
		<g id="XMLID_240_">
			
				<rect id="XMLID_1869_" x="175.324" y="180.721" transform="matrix(-0.8623 -0.5064 0.5064 -0.8623 316.6194 477.5385)" style="fill:#5AAAE7;" width="95.824" height="30"/>
		</g>
		<path id="XMLID_1866_" style="fill:#78B9EB;" d="M370.943,62.13c-3.445-13.249-11.843-24.364-23.648-31.297L326.978,18.9
			L190.432,251.703l51.443,30.212c3.093,1.816,6.569,2.399,9.859,1.895c4.307-0.66,8.293-3.182,10.672-7.233l103.127-175.596
			C372.467,89.176,374.388,75.379,370.943,62.13z"/>
		<polygon id="XMLID_1865_" style="fill:#3D9AE2;" points="230.846,182.799 215.668,208.676 256.949,232.921 272.142,207.052 		"/>
	</g>
	<circle id="XMLID_241_" style="fill:#96C8EF;" cx="344.635" cy="141.798" r="44.998"/>
	<path id="XMLID_242_" style="fill:#3D9AE2;" d="M363.846,410.967H239.832h-47.435H81.415c-16.568,0-30,13.432-30,30
		s13.432,30,30,30h110.982h70.093h101.356c16.568,0,30-13.432,30-30C393.846,424.398,380.415,410.967,363.846,410.967z"/>
	<path id="XMLID_243_" style="fill:#78B9EB;" d="M344.635,96.8v89.995c24.852,0,44.998-20.146,44.998-44.998
		C389.633,116.946,369.487,96.8,344.635,96.8z"/>
	<path id="XMLID_244_" style="fill:#3D9AE2;" d="M344.635,201.796c-33.083,0-59.998-26.915-59.998-59.998S311.552,81.8,344.635,81.8
		s59.998,26.915,59.998,59.998S377.718,201.796,344.635,201.796z M344.635,111.8c-16.541,0-29.998,13.457-29.998,29.998
		s13.457,29.998,29.998,29.998c16.541,0,29.998-13.457,29.998-29.998S361.176,111.8,344.635,111.8z"/>
	<path id="XMLID_245_" style="fill:#1E81CE;" d="M344.635,81.8v30c16.541,0,29.998,13.457,29.998,29.998
		s-13.457,29.998-29.998,29.998v30c33.083,0,59.998-26.915,59.998-59.998S377.718,81.8,344.635,81.8z"/>
	<path id="XMLID_307_" style="fill:#1E81CE;" d="M363.846,410.967H239.832H222.63v60h39.859h101.356c16.568,0,30-13.432,30-30
		C393.846,424.398,380.415,410.967,363.846,410.967z"/>
</g>
</svg>